<svg xmlns="http://www.w3.org/2000/svg" width="151" height="29" viewBox="0 0 151 29" fill="none"><path d="M26.8917 11.3845C26.8621 13.7236 28.9763 15.0288 30.5689 15.8049C32.2052 16.6011 32.7548 17.1117 32.7483 17.8238C32.7361 18.9135 31.4431 19.3945 30.2331 19.4132C28.1222 19.4459 26.8948 18.8433 25.919 18.3875L25.1585 21.9458C26.1375 22.397 27.9503 22.7904 29.8302 22.8076C34.2428 22.8076 37.1297 20.6295 37.1453 17.2523C37.1626 12.9662 31.2168 12.7289 31.2575 10.8131C31.2715 10.2322 31.8258 9.61233 33.0404 9.45472C33.6416 9.3751 35.3013 9.31416 37.1829 10.1806L37.9214 6.73786C36.9095 6.36941 35.609 6.0166 33.9897 6.0166C29.8365 6.0166 26.9153 8.22445 26.8917 11.3845ZM45.0178 6.31315C44.2121 6.31315 43.5331 6.78315 43.23 7.50441L36.9268 22.5548H41.3362L42.2136 20.1298H47.6018L48.1109 22.5548H51.9972L48.6058 6.31315H45.0178ZM45.6347 10.7006L46.9072 16.7995H43.4222L45.6347 10.7006ZM21.5455 6.31335L18.0699 22.5546H22.2717L25.7457 6.31295L21.5455 6.31335ZM15.3296 6.31295L10.9562 17.3678L9.18706 7.96833C8.97948 6.91904 8.15971 6.31315 7.24935 6.31315H0.100135L0 6.78478C1.4677 7.10326 3.13527 7.61694 4.14556 8.16657C4.76384 8.50231 4.94014 8.79581 5.14326 9.59365L8.49403 22.5548H12.9343L19.7419 6.31315L15.3296 6.31295Z" fill="white"></path><path d="M87.8182 28.0333C85.046 28.0338 82.3359 27.2121 80.0306 25.6723C77.7254 24.1324 75.9285 21.9436 74.8672 19.3825C73.806 16.8215 73.528 14.0032 74.0684 11.2842C74.6088 8.56515 75.9434 6.06742 77.9034 4.10687C79.8634 2.14631 82.3607 0.81098 85.0796 0.269739C87.7985 -0.271501 90.6168 0.00565624 93.1782 1.06616C95.7395 2.12667 97.9289 3.9229 99.4694 6.2277C101.01 8.5325 101.832 11.2424 101.833 14.0146V14.0167C101.829 17.7326 100.351 21.2952 97.7239 23.923C95.0965 26.5507 91.5341 28.0289 87.8182 28.0333Z" fill="#F79E1B"></path><path d="M74.1807 28.0333C71.4085 28.0333 68.6985 27.2113 66.3935 25.6711C64.0885 24.1309 62.2919 21.9418 61.231 19.3806C60.1701 16.8194 59.8926 14.0011 60.4334 11.2822C60.9742 8.56319 62.3092 6.06566 64.2695 4.10539C66.2297 2.14513 68.7273 0.810169 71.4462 0.269332C74.1652 -0.271504 76.9835 0.00607359 79.5447 1.06696C82.1059 2.12785 84.295 3.9244 85.8352 6.22943C87.3753 8.53446 88.1974 11.2444 88.1974 14.0167C88.1935 17.7329 86.7155 21.2959 84.0878 23.9237C81.46 26.5515 77.897 28.0295 74.1807 28.0333Z" fill="#EB001B"></path><path d="M147.331 27.0173H112.665C111.957 27.0173 111.279 26.7328 110.779 26.2265C110.279 25.7201 109.998 25.0334 109.998 24.3173V12.9593H111.919L112.352 11.8973H113.322L113.755 12.9548H117.535V12.1504L117.872 12.9604H119.835L120.172 12.1369V12.9582H129.565V11.2212H129.742C129.869 11.2257 129.906 11.2369 129.906 11.4507V12.9604H134.765V12.5565C135.261 12.8119 135.847 12.9615 136.468 12.9615L136.574 12.9604H136.568H138.612L139.05 11.9029H140.02L140.448 12.9604H144.388V11.9547L144.984 12.9604H148.135V6.31841H145.016V7.10253L144.579 6.31841H141.372V7.10253L140.971 6.31841H136.641C135.985 6.28484 135.332 6.42154 134.742 6.71553L134.766 6.70541V6.31841H131.779V6.70541C131.418 6.4169 130.961 6.2789 130.502 6.31953H130.509H119.595L118.862 8.03516L118.11 6.31953H114.672V7.10366L114.294 6.31953H111.36L110.001 9.46953V2.71953C110.001 2.00345 110.282 1.31669 110.782 0.810343C111.283 0.303995 111.961 0.0195313 112.668 0.0195312H147.335C148.042 0.0195313 148.72 0.303995 149.22 0.810343C149.72 1.31669 150.001 2.00345 150.001 2.71953V14.5095H147.92C147.887 14.5073 147.847 14.5073 147.808 14.5073C147.326 14.5073 146.878 14.6535 146.505 14.9044L146.514 14.8988V14.5095H143.436C142.955 14.4826 142.479 14.621 142.086 14.9022L142.092 14.8977V14.5084H136.597V14.8977C136.147 14.6408 135.639 14.5066 135.122 14.5084H135.079H135.081H131.456V14.8977C130.982 14.5904 130.42 14.4537 129.86 14.5095L129.87 14.5084H125.814L124.885 15.5254L124.016 14.5084H117.956V21.1549H123.902L124.859 20.1222L125.76 21.1549H129.426V19.599H129.937C130.428 19.6185 130.919 19.5354 131.377 19.3549L131.352 19.3639V21.1572H134.375V19.4258H134.52C134.705 19.4258 134.724 19.4325 134.724 19.6215V21.1583H143.908L144.02 21.1605C144.547 21.1605 145.038 21.0008 145.447 20.7274L145.437 20.733V21.1583H148.35L148.489 21.1605C149.035 21.1605 149.554 21.0469 150.025 20.841L149.999 20.8512V24.3184C149.999 25.0345 149.718 25.7212 149.218 26.2276C148.718 26.7339 148.04 27.0184 147.332 27.0184L147.331 27.0173ZM133.448 20.2234H132.317V15.459H134.912C135.381 15.415 135.853 15.4949 136.282 15.6908L136.265 15.684C136.612 15.8775 136.845 16.2465 136.845 16.6695L136.842 16.7449V16.7415L136.844 16.7843C136.844 17.331 136.518 17.8013 136.051 18.006L136.042 18.0094C136.266 18.0904 136.452 18.2288 136.591 18.4077L136.594 18.4099C136.75 18.6728 136.816 18.9813 136.78 19.2863L136.781 19.2795V20.2223H135.652V19.626C135.706 19.3014 135.642 18.9682 135.471 18.6878L135.475 18.6934C135.357 18.6033 135.223 18.5381 135.08 18.502C134.938 18.4658 134.789 18.4594 134.644 18.483L134.65 18.4819H133.448V20.2234ZM133.448 16.4434V17.5133H134.815C135.008 17.5313 135.202 17.4964 135.377 17.412L135.37 17.4154C135.442 17.3687 135.501 17.3045 135.541 17.2289C135.582 17.1532 135.603 17.0685 135.604 16.9823L135.602 16.9564V16.9575C135.608 16.8715 135.589 16.7857 135.549 16.7101C135.508 16.6344 135.447 16.572 135.372 16.53L135.37 16.5289C135.202 16.4526 135.016 16.4216 134.832 16.4389H134.837L133.448 16.4434ZM118.968 20.2223V15.459H123.49L124.874 17.0205L126.304 15.459H129.896C131.171 15.459 131.791 15.9732 131.791 17.0284C131.791 18.1028 131.15 18.6248 129.836 18.6248H128.43V20.2212H126.245L124.86 18.6473L123.421 20.2223H118.968ZM127.31 15.9698L125.584 17.8485L127.31 19.788V15.9698ZM120.089 18.2817V19.2289H122.854L124.131 17.8317L122.902 16.4434H120.088V17.3097H122.557V18.2805L120.089 18.2817ZM128.43 16.4445V17.6573H129.882C130.327 17.6573 130.582 17.4278 130.582 17.0273C130.582 16.6448 130.345 16.4434 129.895 16.4434L128.43 16.4445ZM148.472 20.2245H146.301V19.2008H148.464C148.625 19.2234 148.789 19.1805 148.92 19.0815L148.919 19.0827C148.961 19.0434 148.994 18.9959 149.017 18.9431C149.04 18.8902 149.051 18.8332 149.051 18.7755V18.7575C149.051 18.7006 149.039 18.6443 149.016 18.5926C148.992 18.5409 148.958 18.4951 148.915 18.4583C148.8 18.3741 148.658 18.3364 148.517 18.3525H148.519L148.311 18.3458C147.296 18.3188 146.146 18.2873 146.146 16.8777C146.146 16.1914 146.57 15.459 147.758 15.459H149.999V16.4738H147.949C147.791 16.4558 147.631 16.4881 147.491 16.566L147.496 16.5638C147.441 16.6003 147.397 16.6512 147.368 16.711C147.339 16.7708 147.327 16.8373 147.332 16.9035V16.9024V16.9148C147.332 16.9906 147.356 17.0645 147.4 17.1259C147.444 17.1873 147.506 17.2331 147.577 17.2568L147.579 17.2579C147.72 17.3019 147.868 17.3202 148.015 17.3119H148.011L148.621 17.3277C149.081 17.2812 149.541 17.4198 149.9 17.7135L149.897 17.7113C149.93 17.7383 149.959 17.7675 149.985 17.8002L149.986 17.8013L149.999 19.6148C149.812 19.8359 149.575 20.007 149.307 20.1131C149.039 20.2193 148.75 20.2571 148.465 20.2234L148.472 20.2245ZM144.085 20.2245H141.894V19.2008H144.074C144.237 19.2224 144.402 19.1797 144.535 19.0815L144.532 19.0827C144.574 19.0433 144.607 18.9957 144.63 18.9429C144.652 18.8901 144.664 18.8331 144.664 18.7755V18.7643C144.664 18.7064 144.651 18.6492 144.628 18.5964C144.604 18.5436 144.57 18.4966 144.527 18.4583C144.41 18.3741 144.266 18.3364 144.124 18.3525H144.126L143.919 18.3458C142.907 18.3188 141.758 18.2873 141.758 16.8777C141.758 16.1914 142.18 15.459 143.366 15.459H145.619V16.4738H143.557C143.4 16.456 143.241 16.4883 143.102 16.566L143.107 16.5638C143.049 16.6045 143.002 16.6603 142.973 16.7255C142.943 16.7907 142.931 16.8627 142.939 16.9341C142.946 17.0054 142.973 17.0734 143.015 17.1308C143.058 17.1882 143.115 17.2329 143.18 17.2602L143.182 17.2613C143.325 17.3056 143.475 17.3239 143.624 17.3153H143.62L144.226 17.331C144.688 17.2859 145.15 17.4247 145.512 17.718L145.509 17.7147C145.631 17.8509 145.724 18.0114 145.782 18.1859C145.84 18.3603 145.861 18.545 145.845 18.7283V18.7227C145.848 19.716 145.254 20.2223 144.081 20.2223L144.085 20.2245ZM141.22 20.2245H137.465V15.4579H141.217V16.4423H138.587V17.3085H141.156V18.2794H138.587V19.2267L141.22 19.2312V20.2245ZM143.409 12.0278H141.119L140.681 10.9658H138.346L137.921 12.0278H136.606C136.015 12.0593 135.433 11.8708 134.97 11.4979L134.976 11.5013C134.756 11.2555 134.589 10.966 134.486 10.6512C134.382 10.3365 134.345 10.0034 134.376 9.67316L134.375 9.68216C134.346 9.34587 134.385 9.00721 134.49 8.68675C134.595 8.36629 134.763 8.07073 134.984 7.81803L134.981 7.82028C135.215 7.61371 135.488 7.45797 135.783 7.36275C136.078 7.26753 136.39 7.23486 136.698 7.26678L136.689 7.26566H137.778V8.28153H136.711C136.555 8.26118 136.397 8.27593 136.247 8.32473C136.097 8.37354 135.96 8.45521 135.845 8.56391L135.846 8.56278C135.608 8.87081 135.493 9.25761 135.522 9.64728V9.64166C135.487 10.042 135.598 10.4416 135.835 10.7644L135.831 10.7599C136.052 10.9427 136.335 11.0307 136.619 11.0052H136.615H137.119L138.709 7.25891H140.398L142.301 11.7589V7.25891H144.014L145.989 10.5754V7.25891H147.145V12.0199H145.54L143.407 8.44466V12.0199L143.409 12.0278ZM139.521 8.07003L138.747 9.96903H140.299L139.521 8.07003ZM128.634 12.0255H127.509V7.26228H130.096C130.568 7.21267 131.045 7.29395 131.475 7.49741L131.458 7.49066C131.631 7.58748 131.775 7.72943 131.876 7.90174C131.976 8.07405 132.029 8.27045 132.029 8.47053L132.027 8.54928V8.54591V8.58078C132.027 8.8406 131.953 9.09493 131.814 9.31324C131.675 9.53155 131.476 9.70457 131.242 9.81153L131.234 9.81491C131.457 9.90041 131.645 10.0377 131.788 10.2132L131.79 10.2154C131.949 10.4793 132.014 10.7899 131.976 11.0963L131.977 11.0895V12.0244H130.842L130.838 11.4237V11.3337C130.878 11.0399 130.814 10.7412 130.657 10.491L130.66 10.4967C130.543 10.4091 130.409 10.3461 130.267 10.3111C130.125 10.2762 129.978 10.27 129.834 10.293L129.84 10.2919H128.635V12.0244L128.634 12.0255ZM128.634 8.25341V9.31091H129.998C130.191 9.33208 130.385 9.29694 130.559 9.20966L130.554 9.21191C130.625 9.1681 130.684 9.10649 130.724 9.033C130.765 8.95951 130.787 8.87662 130.787 8.79228L130.786 8.76078V8.76191C130.791 8.67642 130.772 8.59114 130.731 8.51657C130.689 8.442 130.627 8.38141 130.551 8.34228L130.549 8.34116C130.38 8.26771 130.196 8.23682 130.012 8.25116H130.016L128.634 8.25341ZM116.727 12.0255H114.442L114.01 10.9635H111.668L111.232 12.0255H110.01L112.025 7.26228H113.695L115.607 11.7702V7.26228H117.441L118.912 10.4922L120.265 7.26228H122.137V12.0233H120.981L120.979 8.29728L119.349 12.0244H118.362L116.728 8.29166V12.0244L116.727 12.0255ZM112.834 8.07003L112.068 9.96903H113.604L112.834 8.07003ZM133.82 12.0244H132.674V7.26228H133.821V12.0233L133.82 12.0244ZM126.725 12.0244H122.976V7.26228H126.731V8.25228H124.1V9.11066H126.668V10.0883H124.098V11.04H126.729V12.0233L126.725 12.0244Z" fill="#016FD0"></path></svg>